<svg width="300" height="300" viewBox="0 0 300 300" fill="none" xmlns="http://www.w3.org/2000/svg">
<rect width="300" height="300" rx="150" fill="url(#paint0_linear)"/>
<g filter="url(#filter0_d)">
<path d="M80.9905 181.015C85.049 183.019 89.1735 184.916 92.3171 188.557C92.63 188.918 92.9381 189.274 93.2514 189.635C93.2561 189.641 93.2609 189.651 93.2701 189.656C98.1394 194.319 102.212 199.843 106.735 204.99C111.362 210.249 117.203 211.622 123.452 210.087C128.762 208.785 133.883 206.582 139.089 204.782C139.075 204.599 139.06 204.421 139.046 204.238C135.21 202.555 131.271 201.09 127.563 199.121C117.996 194.042 109.153 187.653 101.46 179.69C98.0016 176.111 94.7877 172.26 91.8554 168.176C88.8884 164.043 86.4706 159.575 83.7553 155.264C83.0155 154.09 82.2381 152.66 80.5266 153.271C75.5723 155.025 70.6557 156.877 66.332 160.122C63.9424 161.912 61.5623 163.646 60.2015 166.586C60.1967 166.591 60.1967 166.596 60.1967 166.601C59.9311 167.552 59.9168 168.559 60.2627 169.475C60.5664 170.263 61.1021 170.914 61.7136 171.469C61.7184 171.474 61.7231 171.474 61.7275 171.479C62.0686 171.743 62.4244 171.977 62.7893 172.175C64.9038 173.325 67.0277 174.469 69.1616 175.578C69.1711 175.583 69.1755 175.583 69.1803 175.588C69.3415 175.654 69.5027 175.725 69.6639 175.791C73.4473 177.378 77.2211 179.031 80.8626 180.954C80.9055 180.974 80.9476 180.994 80.9905 181.015Z" fill="#F7F7F7"/>
<path d="M87.04 123.396C87.3104 123.538 87.6137 123.665 87.9123 123.696C90.5108 123.975 93.1231 124.144 95.7117 124.515C98.054 124.855 100.377 125.364 102.691 125.888C104.308 126.259 105.891 126.788 107.703 127.307C107.631 126.61 107.651 126.284 107.56 126.005C105.151 118.521 102.238 111.168 100.645 103.412C100.223 101.358 99.9094 99.1288 100.727 97.2171C101.766 94.7874 104.426 93.5426 106.918 93.545C109.334 93.5474 111.427 95.3337 113.782 95.2637C116.154 95.1934 118.329 93.1535 119.497 91.0826C121.067 88.2984 121.627 84.9965 122.932 82.0582C124.614 78.2709 127.629 75.2508 131.16 73.4916C135.65 71.254 138.496 72.2908 143.075 72.6819C144.87 72.8356 146.76 72.5058 148.226 71.3857C154.471 66.6182 146.447 63.154 142.911 61.7202C136.966 59.3101 130.197 59.5538 124.218 61.6962C116.209 64.5661 109.448 70.5018 103.682 77.1197C97.9166 83.7376 92.9678 91.1259 87.3166 97.8562C85.2021 100.374 82.9609 102.843 81.5137 105.856C78.4811 112.166 81.1184 120.228 87.04 123.396Z" fill="#F7F7F7"/>
<path d="M138.657 78.9493C134.4 78.985 130.469 80.5513 128.013 84.2285C125.221 88.4143 124.201 89.6045 128.146 93.444C129.545 94.7968 131.142 95.9158 132.645 97.1413C132.607 97.2478 132.565 97.3551 132.523 97.4616C129.564 96.7545 126.606 96.0475 123.509 95.3152C122.822 96.2102 121.978 97.3189 120.968 98.6364C126.933 100.294 132.257 102.827 138.601 103.849C137.918 102.064 137.524 100.854 137.007 99.7043C135.471 96.266 134.978 92.8379 137.444 89.6952C138.553 88.2811 139.89 86.9338 141.374 86.0384C144.423 84.2026 147.642 82.687 151.008 80.927C150.377 80.5863 149.822 80.2353 149.239 79.9763C145.817 78.4658 142.208 78.9237 138.657 78.9493Z" fill="#F7F7F7"/>
<path d="M171.31 83.3535C171.3 83.3484 171.296 83.3433 171.286 83.3433C169.535 83.3421 167.796 83.6786 166.012 83.7037C163.913 83.7332 161.814 83.5677 159.715 83.6754C153.862 83.9761 146.833 86.3115 142.264 90.3865C141.019 91.4972 139.987 92.9676 139.662 94.669C139.24 96.883 140.098 99.2439 141.594 100.835C144.74 104.181 149.877 104.243 153.968 103.54C155.208 103.327 156.52 102.935 157.311 101.89C158.206 100.709 158.159 98.8753 157.319 97.649C156.48 96.4227 154.97 95.8238 153.562 96.0018C151.259 96.293 150.118 98.1702 148.914 100.033C148.588 99.2046 148.697 98.2315 149.055 97.4183C149.413 96.6051 149.996 95.9303 150.622 95.3325C152.274 93.7529 154.286 92.6103 156.433 92.0333C157.914 91.6348 159.571 91.5291 160.888 92.3599C161.875 92.9829 162.568 94.1144 162.709 95.334C162.885 96.8586 161.997 98.4744 161.391 99.7749C161.386 99.7852 161.386 99.7903 161.386 99.7954C161.367 100.512 161.865 100.64 162.495 100.522C162.5 100.522 162.509 100.517 162.523 100.512C162.528 100.517 162.533 100.507 162.538 100.507C165.095 99.4656 167.539 98.1344 170.026 96.9207C171.678 96.115 175.791 95.1627 174.079 92.2939C173.756 91.7511 173.307 91.3098 172.923 90.8149C172.13 89.7938 171.63 88.5251 171.46 87.2112C171.403 86.7757 171.537 85.9971 171.61 85.244C171.691 84.4238 171.7 83.6326 171.31 83.3535Z" fill="#F7F7F7"/>
<path d="M123.822 133.242C123.5 134.925 123.315 136.41 125.097 137.697C128.027 139.818 130.739 142.305 133.437 144.777C135.281 146.466 135.618 146.348 137.259 144.436C139.833 141.441 142.559 138.567 145.409 135.871C148.847 132.626 152.601 129.763 155.987 126.462C158.713 123.813 161.136 120.791 163.625 117.872C167.65 113.137 171.011 107.909 173.434 102.035C173.977 100.718 173.946 99.2303 174.066 97.8204C173.969 98.9681 168.289 101.509 167.308 102.018C164.828 103.306 162.254 104.386 159.622 105.26C154.347 107.01 148.835 107.925 143.315 108.005C131.78 108.172 122.568 104.288 112.691 98.6057C110.562 97.3798 107.253 98.4277 106.443 100.63C105.622 102.867 105.366 105.227 106.082 107.567C107.035 110.679 108.069 113.757 109.06 116.849C110.345 120.877 111.61 124.915 112.91 128.938C113.024 129.289 113.217 129.711 113.497 129.889C115.858 131.385 118.248 132.834 120.856 134.436C122.804 125.301 119.13 118.166 114.839 111.127C117.247 112.759 119.481 114.473 121.576 116.365C124.454 118.969 125.739 122.402 125.256 126.405C124.975 128.71 124.254 130.953 123.822 133.242ZM112.998 103.789C114.207 104.302 115.525 104.633 116.602 105.371C122.315 109.277 128.265 112.45 134.889 114.312C140.843 115.99 146.78 116.143 152.782 115.461C155.29 115.177 157.751 114.424 160.586 113.804C159.22 117.374 156.594 119.047 154.062 120.095C150.601 121.535 146.765 122.801 143.129 122.679C136.961 122.476 131.081 120.736 126.264 115.838C122.116 111.616 117.45 107.975 112.998 103.789Z" fill="#F7F7F7"/>
<path d="M141.558 148.951C141.597 148.919 141.634 148.887 141.671 148.854C142.497 148.116 143.098 146.973 143.779 146.09C146.361 142.738 149.276 139.431 152.598 136.915C155.526 134.698 159.19 133.444 162.417 131.689C169.359 127.915 176.106 123.118 180.396 115.978C183.477 110.852 185.082 104.864 186.151 98.8733C186.704 95.7719 187.115 92.5074 186.204 89.505C185.347 86.6794 179.264 80.7548 176.581 84.3621C174.859 86.6779 177.756 91.344 177.931 93.8394C178.278 98.7704 177.158 103.794 175.097 108.191C171.838 115.15 166.48 120.701 160.93 125.722C156.752 129.501 152.394 133.067 148.441 137.123C145.022 140.63 140.538 144.548 139.93 149.933C139.968 149.645 141.319 149.148 141.558 148.951Z" fill="#F7F7F7"/>
<path d="M144.56 153.764C150.839 157.299 157.295 160.44 163.778 163.552C165.919 164.579 168.291 165.371 170.629 165.57C172.872 165.761 175.084 165.407 177.03 164.195C179.737 162.509 181.439 159.445 182.634 156.342C184.533 151.406 185.397 146.029 185.23 140.696C185.111 136.886 184.697 128.577 181.61 125.954C180.245 124.795 179.816 125.94 178.391 127.07C173.069 131.293 166.772 133.753 160.81 136.704C158.318 137.937 138.944 150.62 144.56 153.764Z" fill="#F7F7F7"/>
<path d="M92.9751 137.267C97.7565 138.426 102.497 139.868 107.025 141.901C109.305 142.925 111.528 144.1 113.653 145.456C115.735 146.784 117.28 148.521 119.09 150.224C119.432 150.545 120.129 150.877 119.601 151.286C119.321 151.503 116.021 149.601 115.555 149.394C114.139 148.765 112.711 148.165 111.274 147.596C108.398 146.456 105.483 145.434 102.534 144.534C96.8526 142.798 91.1205 141.702 85.2989 140.754C84.2499 140.583 82.0607 140.646 81.1891 139.9C81.2363 140.205 81.2459 140.383 81.2935 140.515C81.3027 140.535 81.3122 140.556 81.3221 140.576C83.9509 146.208 87.7225 151.291 91.3425 156.197C94.8851 160.999 98.6732 165.591 102.683 169.95C106.774 174.397 111.095 178.602 115.621 182.535C117.907 184.522 120.244 186.441 122.631 188.287C124.908 190.048 127.243 191.427 129.607 192.987C134.528 196.232 139.881 198.48 145.456 200.076C147.214 200.582 149.098 200.899 151.051 201.044C152.322 210.642 153.803 225.552 153.07 239.073L167.936 240C168.74 225.159 167.194 209.293 165.831 198.988C172.777 196.535 178.995 192.015 182.183 185.597C183.582 182.781 185.015 174.573 181.779 172.168C181.39 171.878 180.932 171.673 180.398 171.571C155.77 166.877 136.202 152.786 115.814 137.984C113.372 136.458 110.878 135.032 108.318 133.734C102.89 130.985 97.1252 128.906 91.1663 128.015C85.5063 127.169 79.7319 127.142 74.265 129.173C72.2942 129.905 71.0437 130.605 69.7328 132.295C73.3274 133.648 77.4823 134.054 81.2297 134.79C85.1549 135.562 89.0826 136.324 92.9751 137.267Z" fill="#F7F7F7"/>
<path d="M210.035 123.206C207.884 124.644 206.563 127.121 205.33 129.497C203.606 132.818 186.56 168.145 184.661 167.145C190.716 170.36 191.147 175.944 189.27 182.352C189.735 182.286 189.919 182.296 190.071 182.23C196.95 179.27 202.085 173.706 207.614 168.716C210.558 166.056 213.535 163.422 216.65 161.006C222.966 156.118 229.983 152.716 237.417 150.265C240.077 149.39 240.689 147.722 239.224 145.158C238.086 143.159 236.706 141.318 235.459 139.386C232.771 135.21 229.092 132.158 225.441 129.051C221.994 126.118 214.498 120.221 210.035 123.206Z" fill="#F7F7F7"/>
<path d="M158.147 76.0577C161.505 76.1803 166.114 75.825 166.727 75.6651C170.917 74.5748 174.414 71.947 178.744 71.208C183.79 70.3477 188.958 70.8983 193.413 73.736C197.357 76.2487 201.226 78.9088 205.109 81.5276C205.488 81.7819 205.744 82.2295 206.446 83.0282C204.668 82.6823 203.383 82.6108 202.217 82.1682C198.651 80.8099 195.205 79.02 191.561 77.9765C189.316 77.3355 186.899 77.8268 184.614 77.8672C184.843 79.112 185.532 79.5954 186.349 80.5037C187.297 81.5578 188.142 82.7185 188.871 83.9573C190.329 86.435 191.32 89.2318 191.73 92.1301C192.166 95.2142 191.942 98.3974 191.117 101.387C190.252 104.523 188.574 107.29 187.421 110.303C186.539 112.607 185.635 114.906 184.947 117.276C183.705 121.533 185.082 125.413 186.738 129.207C187.041 129.899 187.426 130.555 187.795 131.272C188.842 128.047 189.605 124.974 191.162 121.944C192.718 118.919 194.56 116.08 196.315 113.188C199.207 108.423 201.929 103.296 202.464 97.6396C202.675 95.4127 203.087 92.8654 205.662 92.7157C206.367 95.1372 207.015 97.5437 207.015 100.105C207.029 100.202 207.034 100.303 207.043 100.4C207.633 106.4 202.697 111.145 199.832 115.672C196.616 120.758 193.864 126.207 191.909 131.993C191.636 132.803 191.378 133.618 191.137 134.439C190.137 137.847 189.425 141.344 188.861 144.863C188.574 146.66 188.325 148.464 188.094 150.27C187.901 151.785 187.226 154.083 187.527 155.543C187.988 155.446 188.348 154.473 188.538 154.011C189.771 151.006 190.814 147.893 192.236 144.994C195.446 138.436 198.703 131.905 201.961 125.378C205.167 118.954 209.348 113.282 213.084 107.222C216.923 100.993 220.197 93.9966 220.299 86.5305C220.4 79.0644 216.557 71.129 209.943 68.8003C200.884 65.6108 190.919 63.369 181.411 62.6556C171.61 61.9202 157.138 62.1195 154.589 75.1211C154.473 75.7232 156.071 75.9815 158.147 76.0577Z" fill="#F7F7F7"/>
<path d="M217.793 75.445C217.774 75.3844 217.753 75.327 217.734 75.2669C216.668 72.8042 215.111 70.6692 212.8 69.4001C211.942 68.9284 211.043 68.5849 210.122 68.2265C209.899 68.1797 209.674 68.1365 209.442 68.1007C209.367 68.0905 209.291 68.0756 209.215 68.0649C210.452 68.421 211.661 68.8734 212.799 69.4991C215.152 70.791 216.726 72.9272 217.793 75.445Z" fill="#F7F7F7"/>
</g>
<defs>
<filter id="filter0_d" x="56" y="60" width="188" height="188" filterUnits="userSpaceOnUse" color-interpolation-filters="sRGB">
<feFlood flood-opacity="0" result="BackgroundImageFix"/>
<feColorMatrix in="SourceAlpha" type="matrix" values="0 0 0 0 0 0 0 0 0 0 0 0 0 0 0 0 0 0 127 0"/>
<feOffset dy="4"/>
<feGaussianBlur stdDeviation="2"/>
<feColorMatrix type="matrix" values="0 0 0 0 0 0 0 0 0 0 0 0 0 0 0 0 0 0 0.25 0"/>
<feBlend mode="normal" in2="BackgroundImageFix" result="effect1_dropShadow"/>
<feBlend mode="normal" in="SourceGraphic" in2="effect1_dropShadow" result="shape"/>
</filter>
<linearGradient id="paint0_linear" x1="24.5" y1="16" x2="286" y2="281.5" gradientUnits="userSpaceOnUse">
<stop stop-color="#CB0223"/>
<stop offset="1" stop-color="#F6505D" stop-opacity="0.5"/>
</linearGradient>
</defs>
</svg>
